<?xml version="1.0" encoding="UTF-8"?>
<svg id="Layer_2" xmlns="http://www.w3.org/2000/svg" viewBox="0 0 262.36 68.02">
  <defs>
    <style>
      .cls-1 {
        fill: #dd519d;
      }
    </style>
  </defs>
  <g id="Layer_1-2" data-name="Layer_1">
    <path class="cls-1" d="M10.36,66c-5.02-4.17.72-12.85-5-29-.81-2.28-1.84-4.7-3-9C.13,19.75-1.12,14.86,1.36,11c2.32-3.61,6.73-4.53,9-5,8.14-1.69,16.22,2.33,16,4-.25,1.87-10.67-.78-15,5-2.55,3.4-2.71,9.34,0,12,4.03,3.96,13.44-.33,15,3,.33.71.15,1.42,0,2-1.04,4.06-7.28,3.41-10,7-3.11,4.11-.9,12.81,4,17,5.46,4.67,12.7,2.37,13,4,.46,2.54-16.44,11.45-23,6Z"/>
    <path class="cls-1" d="M40.08,29.14c-1.09,1.78-1.45,3.46-2.1,6.41-1.28,5.87-.84,10.68-.7,12.03.52,4.86,1.41,13.16,7,16.84,3.15,2.07,6.38,1.74,7.7,1.6,8.29-.86,13.9-9.42,13.3-10.42-.48-.8-4.6,3.72-11.2,3.21-1.54-.12-4.87-.43-7.7-3.21-3.62-3.55-5.11-9.85-3.5-15.24,1.89-6.34,7.23-8.63,7.7-8.82,7.12-2.9,13.84,3.21,14.7,1.6.75-1.42-3.57-7.81-9.8-9.62-5.55-1.61-12.29.52-15.4,5.61Z"/>
    <path class="cls-1" d="M75.36,68c-2.47-.57,1.37-13.02-2-30-1.84-9.28-5.19-16.67-3-18,1.21-.73,3.57.69,5,2,8.14,7.48-.1,24.3,6,28,3.25,1.98,6.6-2.2,11,0,5.97,2.99,6.82,14.19,5,15-1.84.82-5.46-9.31-11-9-5.99.34-8.57,12.56-11,12Z"/>
    <path class="cls-1" d="M121.29,33.66c1.83.49,3.69.99,5.25,2.28,3.17,2.63,3.6,7.34,3.75,8.92.44,4.75-1.22,8.07-4.31,14.31-2.87,5.79-4.37,6.1-5.06,6.01-.79-.1-1.32-.8-1.5-1.04-3.81-5.03,5.14-20.23,1.87-23.23-.75-.69-1.81-.43-3.56,0-5.92,1.45-11.52,8.33-10.31,13.27.54,2.21,2.32,3.49,5.81,6.01,4.76,3.43,7.74,3.72,7.69,4.98-.06,1.49-4.32,3.22-8.25,2.49-5.01-.94-7.85-5.58-8.62-6.84-3-4.9-4.45-12.59-1.31-18.46,1.86-3.47,4.77-5.26,7.69-7.05,3.2-1.97,5.21-2.22,6-2.28,1.97-.16,3.55.27,4.87.62Z"/>
    <path class="cls-1" d="M139.79,1.33c-.62-.42-3.21-2.16-4.89-.86-4.05,3.13,4.67,18.12,6.28,44.76.52,8.54.26,17.61,4.19,19.8.53.3.41.06,8.38,0,2.6-.02,4.49,0,6.98-.86,1.54-.53,2.51-.86,3.49-1.72,3.48-3.06,4.48-10.58,2.79-12.05-2.52-2.18-10.05,9.87-14.66,6.89-1.22-.79-1.73-2.3-2.09-3.44-3.07-9.77-3.35-20.57-3.49-24.1-.44-11.29-.94-24.34-6.98-28.4Z"/>
    <path class="cls-1" d="M190.79,45.78c.77-1.34-.9-4.73-1.21-5.35-2.36-4.8-8.27-10.3-12.9-7.69-2.58,1.46-3.43,5.12-4.03,7.56-.46,1.87-2.22,9.05.91,14.94,3.87,7.28,12.8,8.03,15.64,4.15.62-.84,1.39-2.52,1.05-3.09-.35-.59-1.7.42-3.48,1.04-1.1.38-5.94,2.06-8.72-1.19-1.85-2.15-2.8-6.49-1.75-7.97,1.43-2.02,5.4,2.98,10.4,1.27,2.53-.87,4.29-3.09,4.08-3.68-.26-.72-3.4,1.44-8.09.62-2.53-.44-5.71-1-6.66-3.73-.92-2.63.35-6.88,2.14-7.22,3.02-.57,6.54,10.25,11.04,10.85.35.05,1.19.14,1.57-.52Z"/>
    <path class="cls-1" d="M198.66,50.9c-.94,1.57,3,7.97,5.79,7.33,2.97-.69,4.6-9.4,2.67-16.13-1.1-3.84-3.67-8.08-5.79-7.82-1.34.17-1.99,2.08-4.9,2.93-1.18.35-1.57.18-1.78,0-.88-.75-.46-3.31.45-4.89,1.4-2.46,4.57-3.66,6.68-3.42,9.15,1.06,15.89,31.57,11.13,34.7-.64.42-1.95.64-2.67,0-1.55-1.37.33-5.95-.45-6.35-.82-.43-2.51,4.84-5.34,5.38-4.57.86-12.17-10.55-9.79-14.66,2.47-4.27,15.58-.54,15.58.98,0,.36-.75.62-1.78.98-5.34,1.85-9.04-.28-9.79.98Z"/>
    <path class="cls-1" d="M217.84,36.59c.69,9.28,1.97,26.66,4.54,26.71.83.01,1.47-1.8,1.82-2.78,2.42-6.89-2.65-11.97-1.36-20.59.23-1.52.91-6.08,3.63-7.79,3.42-2.15,7.54,1.78,8.17.56.69-1.33-3.21-7.78-6.81-7.23-2.98.45-4.1,5.48-6.36,5.01-1.86-.39-2.43-4.09-3.18-3.9-1.15.3-.51,9.19-.45,10.02Z"/>
    <path class="cls-1" d="M243.87,63.02c-1.58.31-3.79-14.52-6.03-29.58-.06-.4-1.03-7.14.25-7.74,1.01-.47,2.24,3.44,4.77,3.68,2.37.23,3.13-3.01,5.72-4.02,3.76-1.48,9.06,2.67,11.63,7.46,1.89,3.52,1.97,9.27,2.12,20.78.06,4.68-.03,8.58-.28,8.6-.42.03-2.16-10.79-3.49-21.71-.35-2.91-.67-5.77-2.54-7.88-1.98-2.23-5.4-3.29-7.62-2.1-7.26,3.88-2.36,32.08-4.55,32.51Z"/>
  </g>
</svg>