<?xml version="1.0" encoding="UTF-8"?>
<svg id="Layer_2" xmlns="http://www.w3.org/2000/svg" viewBox="0 0 351 97">
  <defs>
    <style>
      .cls-1 {
        fill: #358a7a;
      }

      .cls-2 {
        opacity: .2;
      }

      .cls-3 {
        fill: #555659;
      }
    </style>
  </defs>
  <g id="Layer_1-2" data-name="Layer_1">
    <rect class="cls-1" y="0" width="351" height="97" rx="28.71" ry="28.71"/>
    <g class="cls-2">
      <rect class="cls-3" x="2.5" y="2.5" width="346" height="92" rx="26.13" ry="26.13"/>
      <path d="M322.37,5c13.03,0,23.63,10.6,23.63,23.63v39.75c0,13.03-10.6,23.63-23.63,23.63H28.63c-13.03,0-23.63-10.6-23.63-23.63V28.63C5,15.6,15.6,5,28.63,5h293.75M322.37,0H28.63C12.82,0,0,12.82,0,28.63v39.75c0,15.81,12.82,28.63,28.63,28.63h293.75c15.81,0,28.63-12.82,28.63-28.63V28.63c0-15.81-12.82-28.63-28.63-28.63h0Z"/>
    </g>
  </g>
</svg>