<?xml version="1.0" encoding="UTF-8"?>
<svg id="Layer_2" xmlns="http://www.w3.org/2000/svg" viewBox="0 0 240.29 45.86">
  <defs>
    <style>
      .cls-1 {
        fill: #dd519d;
      }
    </style>
  </defs>
  <g id="Layer_1-2" data-name="Layer_1">
    <path class="cls-1" d="M2.99,6.37c-1.09,1.78-1.45,3.46-2.1,6.41C-.39,18.65.05,23.47.19,24.82c.52,4.86,1.41,13.16,7,16.84,3.15,2.07,6.38,1.74,7.7,1.6,8.29-.86,13.9-9.42,13.3-10.42-.48-.8-4.6,3.72-11.2,3.21-1.54-.12-4.87-.43-7.7-3.21-3.62-3.55-5.11-9.85-3.5-15.24,1.89-6.34,7.23-8.63,7.7-8.82,7.12-2.9,13.84,3.21,14.7,1.6.75-1.42-3.57-7.81-9.8-9.62C12.84-.85,6.1,1.28,2.99,6.37Z"/>
    <path class="cls-1" d="M52.41,10.46c1.83.49,3.69.99,5.25,2.28,3.17,2.63,3.6,7.34,3.75,8.92.44,4.75-1.22,8.07-4.31,14.31-2.87,5.79-4.37,6.1-5.06,6.01-.79-.1-1.32-.8-1.5-1.04-3.81-5.03,5.14-20.23,1.87-23.23-.75-.69-1.81-.43-3.56,0-5.92,1.45-11.52,8.33-10.31,13.27.54,2.21,2.32,3.49,5.81,6.01,4.76,3.43,7.74,3.72,7.69,4.98-.06,1.49-4.32,3.22-8.25,2.49-5.01-.94-7.85-5.58-8.62-6.84-3-4.9-4.45-12.59-1.31-18.46,1.86-3.47,4.77-5.26,7.69-7.05,3.2-1.97,5.21-2.22,6-2.28,1.97-.16,3.55.27,4.87.62Z"/>
    <path class="cls-1" d="M72.54,45.85c-1.28.12-3.08-9.75-6.03-29.58-.06-.4-1.03-7.14.25-7.74,1.01-.47,2.24,3.44,4.77,3.68,2.37.23,3.13-3.01,5.72-4.02,3.76-1.48,9.06,2.67,11.63,7.46,1.89,3.52,1.97,9.27,2.12,20.78.08,6.13.35,8.46-.28,8.6-.92.21-3.28-4.26-4.2-9.08-.97-5.12.39-6.9-1-13-.87-3.83-1.87-5.17-3-6-1.46-1.07-4.18-2.07-6-1-2.9,1.7-1.1,7.25-2,19-.4,5.24-.83,10.79-1.99,10.9Z"/>
    <path class="cls-1" d="M240.01,23.47c.95-1.47-.82-5.03-1.14-5.69-2.5-5.04-9.08-10.66-14.57-7.63-3.06,1.69-4.21,5.66-5.03,8.32-.62,2.02-3,9.82.34,16,4.13,7.64,14.44,8.01,17.91,3.7.76-.94,1.73-2.77,1.37-3.36-.38-.62-1.98.53-4.08,1.28-1.29.46-6.98,2.5-10.04-.86-2.04-2.23-2.93-6.84-1.64-8.48,1.75-2.24,6.11,2.94,11.99.86,2.97-1.05,5.12-3.53,4.9-4.15-.26-.76-4,1.71-9.4,1.05-2.91-.35-6.56-.8-7.53-3.68-.94-2.78.74-7.4,2.82-7.85,3.52-.76,7.08,10.7,12.26,11.12.4.03,1.37.1,1.85-.64Z"/>
    <path class="cls-1" d="M160.54,43.85c-1.25.26-3.73-5.08-5.01-9.9-1.78-6.71,0-7.79-1.02-19.68-.29-3.38-.73-7.28.25-7.74,1.01-.47,2.24,3.44,4.77,3.68,2.37.23,3.13-3.01,5.72-4.02,3.76-1.48,9.06,2.67,11.63,7.46,1.89,3.52,1.97,9.27,2.12,20.78.08,5.66.5,8.39-.28,8.6-.96.25-3.13-3.38-4.2-7.08-1.17-4.04-.29-5.59-1-14-.34-4.04-.71-5.64-2-7-1.36-1.44-3.75-2.62-6-2-2.31.63-3.45,2.89-4,4-2.33,4.74-.22,8.11,0,18,.08,3.4.19,8.66-.99,8.9Z"/>
    <path class="cls-1" d="M100.53,15.95c-.88-1-.94-3.12.03-3.94,1.79-1.5,5.9,2.47,7.97.94.62-.46.65-1.11,1-5,.56-6.25.76-7.67,1.51-7.91.81-.26,1.99.93,2.62,1.88,2.23,3.37-.26,7.13,1.87,9.03.42.37.99.52,2.13.83,3.2.86,4.8-.28,6.05.84.76.69,1.13,1.98.7,2.63-.55.84-2.11.16-4.88.7-1.12.22-2.17.43-3,1-1.88,1.3-1.94,5.22-2,13-.02,3.26-.04,4.89,0,6,.07,2.22.17,2.77,0,4-.19,1.4-.65,4.73-2.72,5.42-.07.02-1.23.4-2.16-.23-1.45-.99-1.24-3.41-1.12-6.18.32-7.51-.5-6.02,0-10,.69-5.55,2.41-9.44.48-11.07-.05-.04-.09-.07-.11-.09-.18-.08-.45-.2-.79-.32-1.45-.5-2.5-.45-3.58-.52-2.13-.14-3.31-.22-4-1Z"/>
    <path class="cls-1" d="M135.96,44.16c.64.37,1.87.47,4.54-1.16,1.22-6.1,1.18-10.93.91-14.28-.39-4.72-1.31-7.04-.41-11.24.21-.99.68-2.82.66-5.42-.02-2.66-.04-5.1-1.65-5.96-1.55-.82-4.06.08-5.24,1.56-.81,1.01-.85,2.09-.87,3.7-.03,4.41-.05,6.62.33,8.99.79,4.9,1.31,5.33,1.73,8.21,1.32,8.86-2.2,14.31,0,15.6Z"/>
    <path class="cls-1" d="M188.37,17.99c-.11-1.51-.13-3.73-.97-6.69-.4-1.41-.94-3.37-1.46-3.34-.93.05-1.9,6.36-1.4,12,.81,9.17,5.97,21.77,13.09,22.01,1.3.04,4.16-.27,7.79-4.46,1.96-2.69,6.24-9.38,5.13-17.55-.92-6.72-4.95-12.37-6.1-12-.75.25-.05,2.98.1,11,.17,9.04-.61,11.3-2,13-.17.2-2.99,3.57-6,3-2.65-.5-3.99-3.78-5.73-8.04-.99-2.42-2.15-5.17-2.43-8.92Z"/>
  </g>
</svg>